<?xml version="1.0" standalone="no"?>
<!DOCTYPE svg PUBLIC "-//W3C//DTD SVG 20010904//EN"
 "http://www.w3.org/TR/2001/REC-SVG-20010904/DTD/svg10.dtd">
<svg version="1.0" xmlns="http://www.w3.org/2000/svg"
 width="154.000000pt" height="92.000000pt" viewBox="0 0 154.000000 92.000000"
 preserveAspectRatio="xMidYMid meet">
<metadata>
Created by potrace 1.10, written by Peter Selinger 2001-2011
</metadata>
<g transform="translate(0.000000,92.000000) scale(0.050000,-0.050000)"
fill="#FFFFFF" stroke="none">
<path d="M2600 1475 l0 -195 -120 0 -120 0 0 -140 0 -140 120 0 119 0 6 -413
5 -412 145 -3 145 -3 0 751 0 750 -150 0 -150 0 0 -195z"/>
<path d="M300 1528 l0 -133 305 15 c376 17 370 -1 -35 -100 -165 -40 -310 -76
-323 -80 -27 -8 32 -230 61 -230 10 0 124 27 253 61 l234 61 287 -60 c158 -33
289 -58 291 -56 1 2 17 50 33 107 35 118 44 110 -151 138 -85 12 -136 49 -68
49 86 0 133 79 133 221 l0 139 -510 0 -510 0 0 -132z"/>
<path d="M1900 1384 c0 -283 -24 -345 -230 -590 l-131 -155 105 -98 106 -98
47 44 c25 24 93 105 149 181 l102 138 161 -174 161 -174 95 97 c120 122 126
98 -88 317 l-183 187 4 280 5 281 -152 0 -151 0 0 -236z"/>
<path d="M132 855 l2 -121 293 4 293 5 0 -112 0 -111 150 0 150 0 0 111 0 111
250 -6 250 -6 0 123 0 123 -695 -1 -695 0 2 -120z"/>
<path d="M280 447 c0 -286 -37 -267 531 -267 258 0 476 -1 484 -2 8 -1 49 53
90 120 l75 122 -452 0 -451 0 6 114 7 113 -145 2 -145 1 0 -203z"/>
</g>
</svg>
